{"asset":{"version":"2.0","generator":"THREE.GLTFExporter"},"scenes":[{"nodes":[0]}],"scene":0,"nodes":[{"name":"inspire","mesh":0}],"bufferViews":[{"buffer":0,"byteOffset":0,"byteLength":123240,"target":34962,"byteStride":12},{"buffer":0,"byteOffset":123240,"byteLength":123240,"target":34962,"byteStride":12},{"buffer":0,"byteOffset":246480,"byteLength":82160,"target":34962,"byteStride":8},{"buffer":0,"byteOffset":328640,"byteLength":107424,"target":34963}],"buffers":[{"byteLength":436064,"uri":"data:application/octet-stream;base64,"}],"accessors":[{"bufferView":0,"componentType":5126,"count":10270,"max":[0.3504999876022339,0.11715040355920792,0.0741364061832428],"min":[-0.3504999876022339,-0.11715040355920792,-0.0741364061832428],"type":"VEC3"},{"bufferView":1,"componentType":5126,"count":10270,"max":[1,0.999585747718811,0.9998327493667603],"min":[-0.9997856616973877,-0.9992460608482361,-0.9998860359191895],"type":"VEC3"},{"bufferView":2,"componentType":5126,"count":10270,"max":[1.0416666269302368,1],"min":[-0.0416666679084301,0],"type":"VEC2"},{"bufferView":3,"componentType":5123,"count":53712,"max":[10269],"min":[0],"type":"SCALAR"}],"materials":[{"pbrMetallicRoughness":{"metallicFactor":0,"roughnessFactor":1}}],"meshes":[{"primitives":[{"mode":4,"attributes":{"POSITION":0,"NORMAL":1,"TEXCOORD_0":2},"indices":3,"material":0}]}]}